<?xml version="1.0" encoding="iso-8859-1"?>
<!-- Uploaded to: SVG Repo, www.svgrepo.com, Generator: SVG Repo Mixer Tools -->
<svg fill="#fff" height="200px" width="200px" version="1.1" id="Layer_1" xmlns="http://www.w3.org/2000/svg" xmlns:xlink="http://www.w3.org/1999/xlink" 
	 viewBox="0 0 512 512" xml:space="preserve">
<g>
	<g>
		<g>
			<path d="M503.467,4.267H332.8c-4.713,0-8.533,3.82-8.533,8.533v256H256v-25.6c0-4.713-3.82-8.533-8.533-8.533H230.4v-25.6
				c0-4.713-3.82-8.533-8.533-8.533h-51.2v-17.067h93.867c4.713,0,8.533-3.821,8.533-8.533v-102.4c0-4.713-3.821-8.533-8.533-8.533
				h-204.8c-4.713,0-8.533,3.82-8.533,8.533v102.4c0,4.713,3.82,8.533,8.533,8.533H153.6v17.067h-51.2
				c-4.713,0-8.533,3.82-8.533,8.533v25.6H76.8c-4.713,0-8.533,3.82-8.533,8.533v25.6H8.533C3.82,268.8,0,272.621,0,277.333v102.4
				c0,4.713,3.82,8.533,8.533,8.533H25.6v102.4H8.533C3.82,490.667,0,494.487,0,499.2s3.82,8.533,8.533,8.533h25.6h51.2h341.333
				h51.2h25.6c4.713,0,8.533-3.82,8.533-8.533s-3.82-8.533-8.533-8.533H486.4v-102.4h17.067c4.713,0,8.533-3.82,8.533-8.533v-102.4
				V12.8C512,8.087,508.18,4.267,503.467,4.267z M68.267,81.067H256V166.4H68.267V81.067z M341.333,21.333h153.6V268.8h-153.6
				V21.333z M110.933,217.6h102.4v17.067h-102.4V217.6z M85.333,251.733H102.4h119.467h17.067V268.8h-153.6V251.733z
				 M42.667,490.667v-102.4H76.8v102.4H42.667z M418.133,388.267v102.4H93.867v-102.4H418.133z M469.333,490.667H435.2v-102.4
				h34.133V490.667z M494.933,371.2h-17.067h-51.2H85.333h-51.2H17.067v-85.333H76.8h170.667H332.8h162.133V371.2z"/>
			<path d="M469.333,38.4h-102.4c-4.713,0-8.533,3.82-8.533,8.533V115.2c0,4.713,3.82,8.533,8.533,8.533h102.4
				c4.713,0,8.533-3.82,8.533-8.533V46.933C477.867,42.22,474.046,38.4,469.333,38.4z M460.8,106.667h-85.333v-51.2H460.8V106.667z"
				/>
			<path d="M366.933,183.467c4.713,0,8.533-3.821,8.533-8.533v-25.6c0-4.713-3.82-8.533-8.533-8.533s-8.533,3.82-8.533,8.533v25.6
				C358.4,179.646,362.221,183.467,366.933,183.467z"/>
			<path d="M469.333,140.8c-4.713,0-8.533,3.82-8.533,8.533v25.6c0,4.713,3.82,8.533,8.533,8.533s8.533-3.821,8.533-8.533v-25.6
				C477.867,144.62,474.046,140.8,469.333,140.8z"/>
			<path d="M435.2,183.467c4.713,0,8.533-3.821,8.533-8.533v-25.6c0-4.713-3.82-8.533-8.533-8.533s-8.533,3.82-8.533,8.533v25.6
				C426.667,179.646,430.487,183.467,435.2,183.467z"/>
			<path d="M401.067,140.8c-4.713,0-8.533,3.82-8.533,8.533v25.6c0,4.713,3.821,8.533,8.533,8.533s8.533-3.821,8.533-8.533v-25.6
				C409.6,144.62,405.78,140.8,401.067,140.8z"/>
			<path d="M401.067,200.533h-34.133c-4.713,0-8.533,3.82-8.533,8.533V243.2c0,4.713,3.82,8.533,8.533,8.533h34.133
				c4.713,0,8.533-3.82,8.533-8.533v-34.133C409.6,204.354,405.78,200.533,401.067,200.533z M392.533,234.667h-17.067V217.6h17.067
				V234.667z"/>
			<path d="M469.333,200.533H435.2c-4.713,0-8.533,3.82-8.533,8.533V243.2c0,4.713,3.82,8.533,8.533,8.533h34.133
				c4.713,0,8.533-3.82,8.533-8.533v-34.133C477.867,204.354,474.046,200.533,469.333,200.533z M460.8,234.667h-17.067V217.6H460.8
				V234.667z"/>
			<path d="M85.333,302.933c-14.142,0-25.6,11.458-25.6,25.6s11.458,25.6,25.6,25.6c14.142,0,25.6-11.458,25.6-25.6
				S99.476,302.933,85.333,302.933z M85.333,337.067c-4.716,0-8.533-3.817-8.533-8.533S80.617,320,85.333,320
				c4.717,0,8.533,3.817,8.533,8.533S90.05,337.067,85.333,337.067z"/>
			<path d="M153.6,302.933c-14.142,0-25.6,11.458-25.6,25.6s11.458,25.6,25.6,25.6c14.142,0,25.6-11.458,25.6-25.6
				S167.742,302.933,153.6,302.933z M153.6,337.067c-4.717,0-8.533-3.817-8.533-8.533S148.883,320,153.6,320
				c4.716,0,8.533,3.817,8.533,8.533S158.317,337.067,153.6,337.067z"/>
			<path d="M221.867,302.933c-14.142,0-25.6,11.458-25.6,25.6s11.458,25.6,25.6,25.6s25.6-11.458,25.6-25.6
				S236.009,302.933,221.867,302.933z M221.867,337.067c-4.717,0-8.533-3.817-8.533-8.533S217.15,320,221.867,320
				c4.716,0,8.533,3.817,8.533,8.533S226.583,337.067,221.867,337.067z"/>
			<path d="M290.133,302.933c-14.142,0-25.6,11.458-25.6,25.6s11.458,25.6,25.6,25.6s25.6-11.458,25.6-25.6
				S304.276,302.933,290.133,302.933z M290.133,337.067c-4.716,0-8.533-3.817-8.533-8.533s3.817-8.533,8.533-8.533
				s8.533,3.817,8.533,8.533S294.85,337.067,290.133,337.067z"/>
			<path d="M358.4,354.133c14.142,0,25.6-11.458,25.6-25.6s-11.458-25.6-25.6-25.6s-25.6,11.458-25.6,25.6
				S344.258,354.133,358.4,354.133z M358.4,320c4.716,0,8.533,3.817,8.533,8.533s-3.817,8.533-8.533,8.533s-8.533-3.817-8.533-8.533
				S353.684,320,358.4,320z"/>
			<path d="M426.667,354.133c14.142,0,25.6-11.458,25.6-25.6s-11.458-25.6-25.6-25.6s-25.6,11.458-25.6,25.6
				S412.525,354.133,426.667,354.133z M426.667,320c4.716,0,8.533,3.817,8.533,8.533s-3.817,8.533-8.533,8.533
				s-8.533-3.817-8.533-8.533S421.95,320,426.667,320z"/>
		</g>
	</g>
</g>
</svg>