<?xml version="1.0" encoding="iso-8859-1"?>
<!-- Uploaded to: SVG Repo, www.svgrepo.com, Generator: SVG Repo Mixer Tools -->
<svg fill="#fff" height="200px" width="200px" version="1.1" id="Capa_1" xmlns="http://www.w3.org/2000/svg" xmlns:xlink="http://www.w3.org/1999/xlink" 
	 viewBox="0 0 463 463" xml:space="preserve">
<path d="M367.5,160h-17.223c-3.045-15.775-15.502-28.231-31.277-31.277V63.5c0-8.547-6.953-15.5-15.5-15.5H295V15.5
	C295,6.953,288.047,0,279.5,0h-16C254.953,0,248,6.953,248,15.5V48h-8.5c-8.547,0-15.5,6.953-15.5,15.5V112h-8.5
	c-12.958,0-23.5,10.542-23.5,23.5v0.5h-40.5c-21.78,0-39.5,17.72-39.5,39.5V416h-0.5C98.542,416,88,426.542,88,439.5v16
	c0,4.142,3.358,7.5,7.5,7.5h240c4.142,0,7.5-3.358,7.5-7.5v-16c0-12.958-10.542-23.5-23.5-23.5H223v-33h96.5
	c12.958,0,23.5-10.542,23.5-23.5V351h16.5c4.142,0,7.5-3.358,7.5-7.5s-3.358-7.5-7.5-7.5H223v-17h8.5c4.142,0,7.5-3.358,7.5-7.5V247
	h9v8.5c0,8.547,6.953,15.5,15.5,15.5h0.5v40.5c0,4.142,3.358,7.5,7.5,7.5s7.5-3.358,7.5-7.5V271h0.5c8.547,0,15.5-6.953,15.5-15.5
	V247h16.5c4.142,0,7.5-3.358,7.5-7.5v-33.223c15.775-3.045,28.231-15.502,31.277-31.277H367.5c4.142,0,7.5-3.358,7.5-7.5
	S371.642,160,367.5,160z M334.821,160H319v-15.821C326.486,146.592,332.408,152.514,334.821,160z M304,190.821
	c-7.486-2.413-13.408-8.335-15.821-15.821H304V190.821z M288.179,160c2.413-7.486,8.335-13.408,15.821-15.821V160H288.179z
	 M263,15.5c0-0.276,0.224-0.5,0.5-0.5h16c0.276,0,0.5,0.224,0.5,0.5V48h-17V15.5z M328,439.5v8.5H103v-8.5
	c0-4.687,3.813-8.5,8.5-8.5h208C324.187,431,328,434.813,328,439.5z M328,359.5c0,4.687-3.813,8.5-8.5,8.5h-104
	c-4.142,0-7.5,3.358-7.5,7.5V416h-81v-65h8.5c4.142,0,7.5-3.358,7.5-7.5s-3.358-7.5-7.5-7.5H127v-25h8.5c4.142,0,7.5-3.358,7.5-7.5
	s-3.358-7.5-7.5-7.5H127v-25h8.5c4.142,0,7.5-3.358,7.5-7.5s-3.358-7.5-7.5-7.5H127v-25h8.5c4.142,0,7.5-3.358,7.5-7.5
	s-3.358-7.5-7.5-7.5H127v-40.5c0-13.509,10.991-24.5,24.5-24.5H192v144.5c0,10.336,6.71,19.128,16,22.266V343.5
	c0,4.142,3.358,7.5,7.5,7.5H328V359.5z M224,304h-8.452c-0.016,0-0.032-0.002-0.048-0.002c-0.008,0-0.016,0.001-0.024,0.001
	c-4.676-0.013-8.476-3.82-8.476-8.499v-160c0-4.687,3.813-8.5,8.5-8.5h8.5V304z M280,255.5c0,0.276-0.224,0.5-0.5,0.5h-16
	c-0.276,0-0.5-0.224-0.5-0.5V247h17V255.5z M239,232V63.5c0-0.276,0.224-0.5,0.5-0.5h64c0.276,0,0.5,0.224,0.5,0.5v65.223
	c-15.775,3.045-28.231,15.502-31.277,31.277H255.5c-4.142,0-7.5,3.358-7.5,7.5s3.358,7.5,7.5,7.5h17.223
	c3.045,15.775,15.502,28.231,31.277,31.277V232H239z M319,190.821V175h15.821C332.408,182.486,326.486,188.408,319,190.821z"/>
</svg>